inDegrees=no
num_controls=7
num_derivatives=13
num_iterations=57
num_multipliers=7
num_parameters=0
num_slacks=7
num_states=26
objective=0.449936
objective_accelerations=0.049152
objective_balance=0.006549
objective_effort=0.035650
objective_height=0.353628
objective_ligament=0.004957
solver_duration=785.152729
status=Solve_Succeeded
success=true
DataType=double
version=3
OpenSimVersion=4.5
endheader
time	/jointset/ground_pelvis/pelvis_tilt/value	/jointset/ground_pelvis/pelvis_tx/value	/jointset/ground_pelvis/pelvis_ty/value	/jointset/hip_l/hip_flexion_l/value	/jointset/hip_l/hip_adduction_l/value	/jointset/hip_l/hip_rotation_l/value	/jointset/back/lumbar_extension/value	/jointset/patellofemoral_l/patellar_flexion_l/value	/jointset/knee_l/knee_flexion_l/value	/jointset/knee_l/knee_adduction_l/value	/jointset/knee_l/knee_rotation_l/value	/jointset/ankle_l/ankle_angle_l/value	/jointset/subtalar_l/subtalar_angle_l/value	/jointset/ground_pelvis/pelvis_tilt/speed	/jointset/ground_pelvis/pelvis_tx/speed	/jointset/ground_pelvis/pelvis_ty/speed	/jointset/hip_l/hip_flexion_l/speed	/jointset/hip_l/hip_adduction_l/speed	/jointset/hip_l/hip_rotation_l/speed	/jointset/back/lumbar_extension/speed	/jointset/patellofemoral_l/patellar_flexion_l/speed	/jointset/knee_l/knee_flexion_l/speed	/jointset/knee_l/knee_adduction_l/speed	/jointset/knee_l/knee_rotation_l/speed	/jointset/ankle_l/ankle_angle_l/speed	/jointset/subtalar_l/subtalar_angle_l/speed	/forceset/tau_hip_flexion_l	/forceset/tau_hip_adduction_l	/forceset/tau_hip_rotation_l	/forceset/tau_knee_flexion_l	/forceset/tau_ankle_angle_l	/forceset/tau_subtalar_angle_l	/forceset/tau_lumbar_extension	lambda_cid13_p0	lambda_cid13_p1	lambda_cid13_p2	lambda_cid13_p3	lambda_cid13_p4	lambda_cid13_p5	lambda_cid14_p0	/jointset/ground_pelvis/pelvis_tilt/accel	/jointset/ground_pelvis/pelvis_tx/accel	/jointset/ground_pelvis/pelvis_ty/accel	/jointset/hip_l/hip_flexion_l/accel	/jointset/hip_l/hip_adduction_l/accel	/jointset/hip_l/hip_rotation_l/accel	/jointset/back/lumbar_extension/accel	/jointset/patellofemoral_l/patellar_flexion_l/accel	/jointset/knee_l/knee_flexion_l/accel	/jointset/knee_l/knee_adduction_l/accel	/jointset/knee_l/knee_rotation_l/accel	/jointset/ankle_l/ankle_angle_l/accel	/jointset/subtalar_l/subtalar_angle_l/accel	gamma_cid13_p0	gamma_cid13_p1	gamma_cid13_p2	gamma_cid13_p3	gamma_cid13_p4	gamma_cid13_p5	gamma_cid14_p0
1	-0.6278998236703301	-0.1071327869079244	0.6048192389762175	1.902920195708984	-0.2922629135700868	0.147201555423642	-0.4363075166648664	1.223407687983617	1.223407687983353	-0.174530756127807	0.1745124195733742	0.1479490095960118	-0.01355609358240836	-0.01075892868293191	-0.0004151899594617959	-0.00325821746676855	0.01704139260579544	0.000463365816944221	0.002419733396372815	0.0004444718698712098	0.006268125256615406	0.006268125256615569	-0.0001320324432479083	-4.769685257627424e-06	0.0003215704210290358	0.0005176087770880053	-0.429142769754338	0.04049137408567673	-0.01773072385765068	-0.2573961683782399	0.09945183361558536	0.002122035778331528	0.3486617451225743	-14.84587294714427	2.741045095870494	-2.053892823656962	10.33636435083508	-728.5844553197992	-18.56055603064044	-0.437469838492181	1.865739407801027	0.2296874472140694	1.706037541121821	-6.311764367657453	-0.3949162085831117	-1.812707059476012	-0.05165406696629816	-4.823637745194819	-4.82363774519484	0.007265870746011345	0.01513819515776036	-0.6625628620454238	-0.5339374800847525	8.904548580507457e-10	1.144094577531337e-09	-2.136436606821597e-09	-1.202286956323847e-09	1.359498727323772e-09	-3.199241416392237e-09	6.266453151008941e-10
1.01	-0.6279148446021724	-0.1071255073443801	0.6048718355306376	1.902775977808418	-0.2922771783848332	0.1471342512623121	-0.4363049126519753	1.223229440504942	1.223229440504529	-0.1745296296926746	0.1745123986903641	0.1479192941736572	-0.01357660037203889	0.007751621175440641	0.001872046074876412	0.01377490846366398	-0.04587797738661435	-0.003317001882572662	-0.01586661226889276	7.321467811241428e-05	-0.0419171739064158	-0.04191717390641489	0.0003419760962120927	-1.306212794916742e-06	-0.006268357985627551	-0.004620357459641789	-0.4289390016925861	0.04051314094465701	-0.0177431222285617	-0.2574100727400268	0.09960792695334515	0.002119363963511341	0.348520558792115	-14.78489415773521	2.72999114878873	-2.050374481413686	10.26947801456781	-728.4250150464792	-18.5754435196853	-0.4397981986217236	1.843244295504161	0.2283840331774014	1.701555828984834	-6.280974481013014	-0.3697019277514468	-1.834510504806892	-0.0303289502549856	-4.815907662906435	-4.815907662906656	0.06516466497866445	-0.007341824071006047	-0.6577629365572724	-0.50393737698327	-4.008215688334314e-09	-7.398601563191542e-09	3.144717578711474e-08	4.151796188785819e-09	-6.45507476823971e-09	2.101622439727221e-08	-6.309093491632458e-09
1.02	-0.6277448537312889	-0.1070953269501674	0.6050946844863584	1.90200277597474	-0.292329267852013	0.1468845012074864	-0.4363061146919445	1.222569353702403	1.222569353701869	-0.1745242239081881	0.1745123539926875	0.1478235684459206	-0.01364852906034103	0.02624343185982831	0.004164976174223581	0.03079226279371366	-0.1087553940182474	-0.00710156466674024	-0.03406944532435516	-0.0003167387125607317	-0.09009973951139424	-0.09009973951139255	0.0007238374129627318	-9.532634776688478e-06	-0.01288049065554281	-0.009766770957026041	-0.4287352336307825	0.04053490780373194	-0.01775552059957272	-0.257423977101771	0.09976402029114458	0.002116692148808429	0.3483793724616961	-14.73070964874354	2.720045264235748	-2.04693960490839	10.22807919610154	-728.3601839530774	-18.55663364594763	-0.4484310971539486	1.861991573004372	0.230826260215672	1.702883221045194	-6.303373695502077	-0.395755225513204	-1.796004537515263	-0.05539330674904663	-4.82309103358427	-4.823091033584286	-0.01116357379589014	0.01280021626872945	-0.6670037146975001	-0.5356269322156653	-7.567192886172175e-09	-1.601521277882959e-08	5.748998260128458e-08	6.855158209292046e-09	-1.258127211163507e-08	4.008631193476434e-08	-1.208070232045051e-08
1.03	-0.6273901040650454	-0.1070421479317765	0.6054875675237852	1.900601170284977	-0.2924191211437184	0.1464530372979431	-0.4363109400735654	1.22142755006607	1.221427550065701	-0.1745152463583597	0.1745121749959221	0.1476616162530525	-0.01377184057312212	0.04469628752449264	0.00647580984913818	0.04777564906089603	-0.1715422275390267	-0.01085892001057757	-0.05222120689127303	-0.0006138536829795268	-0.1382510513204103	-0.1382510513204075	0.001079925548478171	-2.768748602325256e-05	-0.01951293580320426	-0.0148838931372613	-0.4285064412472361	0.04069431145100613	-0.0177902139962186	-0.2572156107951661	0.09985033625776138	0.002172813825241566	0.3483061111937871	-14.68547995129539	2.681451167768627	-2.033589337696847	10.12683932346141	-728.1522913395951	-18.56096919306157	-0.4636168795636851	1.83539944279626	0.2319611948765037	1.694758209711249	-6.262812205771815	-0.3642094462862198	-1.824457507533227	-0.01169800271580207	-4.809657185998949	-4.809657185999069	0.06022595958533519	-0.009356223252648312	-0.6618123280527444	-0.4980150903456001	-1.111249974371873e-08	-2.463257822992596e-08	8.345584241974248e-08	9.531472055057406e-09	-1.869024112694707e-08	5.91038956122955e-08	-1.784043227194289e-08
1.04	-0.6268511324662278	-0.1069657107218884	0.6060500227999152	1.89857240145493	-0.2925462447403702	0.1458401166645756	-0.4363177020869272	1.219804532125337	1.21980453212516	-0.1745024617366351	0.1745117678732321	0.147433250126058	-0.01394597535359019	0.06308781837317566	0.008816614473637518	0.06470671053468015	-0.2341880220760555	-0.01455562565313165	-0.07036079010831602	-0.0007040650744402581	-0.1863426003869583	-0.1863426003869545	0.001485251778379071	-5.515783450521347e-05	-0.02616327748095773	-0.01993142449423095	-0.4282776488636428	0.04085371509835815	-0.01782490739290731	-0.257007244488528	0.09993665222441023	0.002228935501770092	0.3482328499259155	-14.64706694390827	2.643918978308689	-2.020257976230448	10.0509197254315	-728.0392023078261	-18.53213059549631	-0.4856754093214387	1.849726609808477	0.2368204501324241	1.692418262365476	-6.275165898751958	-0.3836252852565444	-1.793568867540109	-0.01401259095700331	-4.811138485090659	-4.811138485090683	-0.001315954918937199	0.01093711682154201	-0.670583020716269	-0.521708767562614	-1.45596787503324e-08	-3.284343107216661e-08	1.127194896199201e-07	1.175911298400072e-08	-2.484440013432306e-08	7.99338019892777e-08	-2.412740456633076e-08
1.05	-0.626128404602542	-0.1068656719504512	0.6067814653049283	1.895917886302782	-0.292710003971037	0.145046071991447	-0.4363242587200296	1.21770106073723	1.217701060736815	-0.1744855366944683	0.1745110313293734	0.1471383061847131	-0.01417019980884855	0.08146162486287535	0.01120045331036332	0.08156690690840605	-0.2966903178875476	-0.01818196002038822	-0.08842982525337326	-0.0005645833087327344	-0.2343251480526084	-0.234325148052603	0.001898404686859124	-9.43244777152195e-05	-0.03282646139236184	-0.02489646649699944	-0.4279557276863805	0.04112444553603305	-0.0178734118750467	-0.2565305450054932	0.09988188023939056	0.002367152524080074	0.3481504032370301	-14.63462121789851	2.56973551239144	-1.994750897329651	9.943873726828917	-727.6870801363829	-18.54152668373271	-0.5151527554658768	1.831786385379328	0.2405654412887155	1.680581528613353	-6.234060439607983	-0.3500151565827088	-1.810848382468643	0.03433029823932542	-4.787827379830772	-4.787827379830736	0.06241640709809168	-0.01170324506016778	-0.6643271702539543	-0.4813623061387073	-1.800379126160443e-08	-4.104158039538051e-08	1.420861926757764e-07	1.397273288429336e-08	-3.099997132895105e-08	1.008203434506178e-07	-3.043085318393412e-08
1.06	-0.6252218229305924	-0.1067415148224789	0.6076810620144257	1.892639088389056	-0.2929096020742158	0.1440718814580587	-0.4363281401879394	1.215118560977938	1.215118560977324	-0.1744645230244716	0.1745098311811173	0.1467767021854743	-0.0144435667620364	0.09985858002578761	0.01364028578067175	0.09833755143190193	-0.3590445743894595	-0.0217234001525694	-0.1063899621776369	-0.0001690320267837074	-0.2821482746193925	-0.2821482746193853	0.002302977329987345	-0.0001478787276253956	-0.03949528905982787	-0.02975992407996653	-0.427633806509128	0.0413951759737722	-0.01792191635719758	-0.2560538455224264	0.09982710825440655	0.002505369546469966	0.3480679565481206	-14.62902190909916	2.496533589696408	-1.969152172983345	9.861325206949846	-727.430178729115	-18.51901388910501	-0.552671694951797	1.854356344451399	0.2480191768487549	1.674507892319401	-6.245558036835923	-0.3666464382414864	-1.771789223381191	0.03720131229187773	-4.779254265317453	-4.779254265317449	-0.003032007989498508	0.008059595481426624	-0.6717117719290224	-0.5013918836024333	-2.179463014415601e-08	-5.071868810423447e-08	1.681481967343455e-07	1.641232138771315e-08	-3.674570118280553e-08	1.186033446982072e-07	-3.636500506716716e-08
